<?xml version="1.0"?>
<svg xmlns="http://www.w3.org/2000/svg" id="Capa_1" enable-background="new 0 0 510.704 510.704" height="512px" viewBox="0 0 510.704 510.704" width="512px"><g><g><path d="m3.657 497.947c4.509 7.869 12.856 12.757 21.783 12.757h.002c4.407 0 8.802-1.211 12.71-3.502l264.881-155.275c29.551-16.337 49.112-44.909 53.677-78.42 1.624-11.916 1.239-23.736-1.003-35.089 14.901 2.945 31.333 4.427 47.764 4.427 27.176 0 54.32-4.025 74.439-12.073 20.927-8.371 32.449-20.073 32.445-32.951 0-12.867-11.525-24.565-32.451-32.934-15.972-6.387-38.311-10.506-61.665-11.708 6.234-9.052 11.438-18.175 15.214-26.984 8.879-20.715 8.757-37.135-.345-46.237-9.098-9.106-25.52-9.233-46.238-.354-10.175 4.361-20.771 10.62-31.195 18.189-1.187-40.472-12.231-73.604-24.751-87.623-7.506-8.405-15.116-10.17-20.177-10.17-.003 0-.005 0-.007 0-12.871 0-24.57 11.523-32.939 32.446-13.33 33.324-15.492 83.497-6.87 122.398-33.314-5.342-67.966 4.924-92.875 30.434l-.915.934c-13.4 13.646-4.989 4.276-171.271 286.67-4.62 7.882-4.695 17.243-.213 25.065zm319.243-373.43c-8.716 8.919-16.767 18.459-23.685 28.18-8.44-33.18-7.081-80.307 4.441-109.11 1.85-4.626 3.686-7.983 5.204-10.297 2.958 4.783 6.945 13.691 10.105 27.329 4.516 19.5 5.884 42 3.935 63.898zm84.538-20.895c-.575 2.689-1.647 6.291-3.559 10.754-11.505 26.839-41.35 59.502-70.082 77.83-4.599-5.592-9.51-10.481-14.977-14.956 18.395-29.024 50.551-58.365 77.867-70.071 4.462-1.912 8.063-2.983 10.751-3.557zm-45.335 105.492c10.291-7.662 20.315-16.54 29.535-26.074 27.64-1.22 57.21 2.538 75.126 9.703 4.508 1.803 7.814 3.592 10.122 5.087-2.307 1.495-5.61 3.284-10.117 5.087-26.597 10.639-71.019 12.706-104.666 6.197zm-322.733 262.6c37.134-63.106 64.705-110.207 85.756-146.251l26.7 26.7 21.213-21.214-32.277-32.276c30.112-51.623 41.054-70.474 47.142-80.118l48.766 48.765 21.213-21.213-49.249-49.249c28.956-20.048 69.754-17.761 96.209 8.093 36.505 35.675 28.072 96.289-16.456 120.794-34.2 20.039-17.97 10.529-22.517 13.193l-39.804-39.804-21.213 21.213 34.271 34.27z" data-original="#000000" class="active-path" data-old_color="#000000" fill="#E67E22"/></g></g> </svg>
